<?xml version="1.0" encoding="UTF-8"?>
<svg id="Layer_2" data-name="Layer 2" xmlns="http://www.w3.org/2000/svg" viewBox="0 0 1502.66 769.11">
  <defs>
    <style>
      .cls-1 {
        stroke-width: 0px;
      }
    </style>
  </defs>
  <g id="Layer_1-2" data-name="Layer 1">
    <g>
      <path class="cls-1" d="m1145.88,433.6c33.57,0,61.88-1.99,84.93-5.97,23.04-3.99,41.54-10.53,55.48-19.64,13.94-9.1,23.89-20.77,29.87-34.99,5.98-14.22,8.96-31.58,8.96-52.07V9.4h177.54v311.54c0,172.98-118.92,259.48-356.78,259.48h-213.39l115.23-146.81h98.16Zm-244.44-232.16l-268.01,378.97h-286.79c-49.51,0-95.32-7.4-137.43-22.19-42.1-14.8-78.38-35.14-108.83-61.03-30.43-25.89-54.34-56.62-71.7-92.18-17.35-35.57-26.03-74.12-26.03-115.65s8.68-79.53,26.03-113.95c17.36-34.43,41.26-64.03,71.7-88.77,30.44-24.75,66.73-43.81,108.83-57.19,42.11-13.37,87.92-20.05,137.43-20.05h400.32l-113.53,148.52h-286.79c-23.9,0-46.09,3.42-66.58,10.24-20.49,6.82-38.13,16.36-52.93,28.59-14.79,12.24-26.45,26.89-34.99,43.96-8.54,17.07-12.8,35.85-12.8,56.33s4.12,39.11,12.38,55.9c8.25,16.78,19.91,31.16,34.99,43.11,15.08,11.95,32.86,21.2,53.35,27.74,20.47,6.54,42.67,9.81,66.58,9.81h181.76L790.47,64.02c11.96-16.49,27.04-31.29,45.25-44.38C853.18,7.09,875.09.55,901.44.03l3.42-.03c26.74,0,49.08,6.12,67,18.36,17.92,12.23,33.15,27.45,45.67,45.66l204.41,295.84-2.76.5c-23.74,4.1-49.25,4.97-73.29,4.97h-131.37l-.87,1.11c-3.3-4.75-6.57-9.4-9.78-13.92l-102.42-151.08h0Zm-191.19,378.97l106.69-146.81h164.09l-115.23,146.81h-155.55Zm250.68-146.81h-59.49,59.49Z"/>
      <g>
        <path class="cls-1" d="m49.53,765.91c-3.1,1.55-9.3,3.1-17.25,3.1-18.42,0-32.28-11.63-32.28-33.05s13.86-34.31,34.12-34.31c8.14,0,13.28,1.74,15.51,2.91l-2.04,6.88c-3.2-1.55-7.75-2.71-13.18-2.71-15.31,0-25.49,9.79-25.49,26.94,0,15.99,9.21,26.27,25.1,26.27,5.14,0,10.37-1.07,13.76-2.71l1.74,6.69Z"/>
        <path class="cls-1" d="m87.91,702.72v27.33h31.6v-27.33h8.53v65.33h-8.53v-30.63h-31.6v30.63h-8.43v-65.33h8.43Z"/>
        <path class="cls-1" d="m162.06,703.59c4.26-.87,10.37-1.36,16.19-1.36,9.01,0,14.83,1.65,18.9,5.33,3.3,2.91,5.14,7.37,5.14,12.41,0,8.63-5.43,14.34-12.31,16.67v.29c5.04,1.75,8.04,6.4,9.6,13.18,2.13,9.11,3.68,15.41,5.04,17.93h-8.72c-1.07-1.84-2.52-7.46-4.36-15.6-1.94-9.01-5.43-12.41-13.08-12.7h-7.95v28.3h-8.43v-64.45Zm8.43,29.75h8.63c9.01,0,14.73-4.94,14.73-12.41,0-8.43-6.11-12.11-15.02-12.21-4.07,0-6.98.39-8.34.78v23.84Z"/>
        <path class="cls-1" d="m242.02,702.72v65.33h-8.43v-65.33h8.43Z"/>
        <path class="cls-1" d="m274.97,757.77c3.78,2.33,9.3,4.26,15.12,4.26,8.63,0,13.67-4.56,13.67-11.15,0-6.11-3.49-9.6-12.31-12.99-10.66-3.78-17.25-9.3-17.25-18.51,0-10.18,8.43-17.74,21.13-17.74,6.69,0,11.53,1.55,14.44,3.2l-2.33,6.88c-2.13-1.16-6.49-3.1-12.41-3.1-8.92,0-12.31,5.33-12.31,9.79,0,6.11,3.97,9.11,12.99,12.6,11.05,4.26,16.67,9.6,16.67,19.19,0,10.08-7.46,18.8-22.87,18.8-6.3,0-13.18-1.84-16.67-4.17l2.13-7.08Z"/>
        <path class="cls-1" d="m355.71,709.89h-19.87v-7.17h48.36v7.17h-19.97v58.15h-8.53v-58.15Z"/>
        <path class="cls-1" d="m464.07,734.7c0,22.49-13.67,34.41-30.34,34.41s-29.37-13.38-29.37-33.15c0-20.74,12.89-34.31,30.34-34.31s29.37,13.67,29.37,33.05Zm-50.69,1.07c0,13.96,7.56,26.46,20.84,26.46s20.94-12.31,20.94-27.14c0-12.99-6.78-26.56-20.84-26.56s-20.94,12.89-20.94,27.23Z"/>
        <path class="cls-1" d="m494.41,703.49c4.07-.68,9.4-1.26,16.19-1.26,8.33,0,14.44,1.94,18.32,5.43,3.59,3.1,5.72,7.85,5.72,13.67s-1.74,10.57-5.04,13.96c-4.46,4.75-11.73,7.17-19.97,7.17-2.52,0-4.85-.1-6.78-.58v26.17h-8.43v-64.55Zm8.43,31.5c1.84.48,4.17.68,6.98.68,10.18,0,16.38-4.94,16.38-13.96s-6.11-12.79-15.41-12.79c-3.68,0-6.49.29-7.95.68v25.39Z"/>
        <path class="cls-1" d="m573.79,702.72v27.33h31.6v-27.33h8.53v65.33h-8.53v-30.63h-31.6v30.63h-8.43v-65.33h8.43Z"/>
        <path class="cls-1" d="m681.77,737.41h-25.39v23.55h28.3v7.08h-36.73v-65.33h35.28v7.08h-26.85v20.64h25.39v6.98Z"/>
        <path class="cls-1" d="m715.01,703.59c4.26-.87,10.37-1.36,16.19-1.36,9.01,0,14.83,1.65,18.9,5.33,3.29,2.91,5.14,7.37,5.14,12.41,0,8.63-5.43,14.34-12.31,16.67v.29c5.04,1.75,8.04,6.4,9.6,13.18,2.13,9.11,3.68,15.41,5.04,17.93h-8.72c-1.07-1.84-2.52-7.46-4.36-15.6-1.94-9.01-5.43-12.41-13.08-12.7h-7.95v28.3h-8.43v-64.45Zm8.43,29.75h8.63c9.01,0,14.73-4.94,14.73-12.41,0-8.43-6.11-12.11-15.02-12.21-4.07,0-6.98.39-8.33.78v23.84Z"/>
        <path class="cls-1" d="m837.04,747.49l-6.78,20.55h-8.72l22.19-65.33h10.18l22.29,65.33h-9.01l-6.98-20.55h-23.16Zm21.42-6.59l-6.4-18.8c-1.45-4.26-2.42-8.14-3.39-11.92h-.19c-.97,3.88-2.04,7.85-3.29,11.82l-6.4,18.9h19.67Z"/>
        <path class="cls-1" d="m905.18,702.72h8.43v58.25h27.91v7.08h-36.35v-65.33Z"/>
        <path class="cls-1" d="m980.87,747.49l-6.78,20.55h-8.72l22.19-65.33h10.18l22.29,65.33h-9.01l-6.98-20.55h-23.16Zm21.42-6.59l-6.4-18.8c-1.45-4.26-2.42-8.14-3.39-11.92h-.19c-.97,3.88-2.04,7.85-3.29,11.82l-6.4,18.9h19.67Z"/>
        <path class="cls-1" d="m1049.01,768.04v-65.33h9.21l20.94,33.05c4.85,7.66,8.63,14.54,11.73,21.23l.19-.1c-.78-8.72-.97-16.67-.97-26.85v-27.33h7.95v65.33h-8.53l-20.74-33.15c-4.56-7.27-8.92-14.73-12.21-21.81l-.29.1c.48,8.24.68,16.09.68,26.94v27.91h-7.95Z"/>
        <path class="cls-1" d="m1185.48,702.72h8.43v43.71c0,17.35-8.53,22.68-19.77,22.68-3.1,0-6.88-.68-9.01-1.55l1.26-6.88c1.74.68,4.26,1.26,7.07,1.26,7.56,0,12.02-3.39,12.02-16.19v-43.03Z"/>
        <path class="cls-1" d="m1283.18,734.7c0,22.49-13.67,34.41-30.34,34.41s-29.37-13.38-29.37-33.15c0-20.74,12.89-34.31,30.34-34.31s29.37,13.67,29.37,33.05Zm-50.69,1.07c0,13.96,7.56,26.46,20.84,26.46s20.94-12.31,20.94-27.14c0-12.99-6.78-26.56-20.84-26.56s-20.93,12.89-20.93,27.23Z"/>
        <path class="cls-1" d="m1313.52,768.04v-65.33h9.21l20.94,33.05c4.85,7.66,8.63,14.54,11.73,21.23l.19-.1c-.78-8.72-.97-16.67-.97-26.85v-27.33h7.95v65.33h-8.53l-20.74-33.15c-4.56-7.27-8.92-14.73-12.21-21.81l-.29.1c.48,8.24.68,16.09.68,26.94v27.91h-7.95Z"/>
        <path class="cls-1" d="m1430.51,737.41h-25.39v23.55h28.3v7.08h-36.73v-65.33h35.28v7.08h-26.85v20.64h25.39v6.98Z"/>
        <path class="cls-1" d="m1462.59,757.77c3.78,2.33,9.3,4.26,15.12,4.26,8.63,0,13.67-4.56,13.67-11.15,0-6.11-3.49-9.6-12.31-12.99-10.66-3.78-17.25-9.3-17.25-18.51,0-10.18,8.43-17.74,21.13-17.74,6.69,0,11.53,1.55,14.44,3.2l-2.33,6.88c-2.13-1.16-6.49-3.1-12.41-3.1-8.92,0-12.31,5.33-12.31,9.79,0,6.11,3.97,9.11,12.99,12.6,11.05,4.26,16.67,9.6,16.67,19.19,0,10.08-7.46,18.8-22.87,18.8-6.3,0-13.18-1.84-16.67-4.17l2.13-7.08Z"/>
      </g>
    </g>
  </g>
</svg>