<?xml version="1.0" encoding="UTF-8"?>
<svg id="Layer_2" data-name="Layer 2" xmlns="http://www.w3.org/2000/svg" viewBox="0 0 200 46.57">
  <defs>
    <style>
      .cls-1 {
        fill: #000;
      }

      .cls-1, .cls-2 {
        stroke-width: 0px;
      }

      .cls-2 {
        fill: #c33;
      }

      .cls-3 {
        isolation: isolate;
      }
    </style>
  </defs>
  <g id="Layer_1-2" data-name="Layer 1">
    <g id="Layer_1-2" data-name="Layer 1-2">
      <g class="cls-3">
        <g class="cls-3">
          <path class="cls-1" d="M6.09,33.08c-1.9-1.06-3.39-2.58-4.47-4.54-1.08-1.96-1.62-4.23-1.62-6.82s.55-4.81,1.66-6.77c1.11-1.96,2.62-3.47,4.54-4.51,1.92-1.05,4.06-1.57,6.43-1.57s4.51.52,6.43,1.57c1.91,1.05,3.43,2.55,4.54,4.49,1.11,1.95,1.66,4.21,1.66,6.79s-.57,4.86-1.71,6.82c-1.14,1.96-2.68,3.47-4.63,4.54-1.95,1.06-4.1,1.6-6.47,1.6s-4.46-.53-6.36-1.6ZM16.64,29.98c1.31-.7,2.36-1.75,3.17-3.15.81-1.4,1.21-3.1,1.21-5.11s-.4-3.71-1.19-5.11c-.79-1.4-1.82-2.44-3.1-3.12s-2.66-1.03-4.15-1.03-2.91.34-4.17,1.03c-1.26.68-2.27,1.73-3.03,3.12-.76,1.4-1.14,3.1-1.14,5.11s.37,3.75,1.12,5.15c.74,1.4,1.74,2.44,2.99,3.12,1.25.68,2.61,1.03,4.1,1.03s2.89-.35,4.19-1.05Z"/>
          <path class="cls-1" d="M38,10c1.35-.79,3-1.19,4.95-1.19v4.29h-1.09c-4.65,0-6.98,2.52-6.98,7.57v13.59h-4.15V9.28h4.15v4.06c.73-1.43,1.77-2.54,3.12-3.33Z"/>
          <path class="cls-1" d="M63.72,10.28c1.63.94,2.83,2.13,3.62,3.56v-4.56h4.19v25.53c0,2.28-.49,4.31-1.46,6.09-.97,1.78-2.36,3.17-4.17,4.17-1.81,1-3.91,1.5-6.31,1.5-3.28,0-6.02-.78-8.21-2.33s-3.48-3.66-3.88-6.34h4.1c.46,1.52,1.4,2.74,2.83,3.67,1.43.93,3.15,1.39,5.15,1.39,2.28,0,4.14-.71,5.59-2.14,1.44-1.43,2.17-3.44,2.17-6.02v-5.24c-.82,1.46-2.04,2.68-3.65,3.65-1.61.97-3.5,1.46-5.65,1.46s-4.23-.55-6.04-1.64c-1.81-1.09-3.23-2.63-4.26-4.6-1.03-1.98-1.55-4.22-1.55-6.75s.52-4.79,1.55-6.73c1.03-1.93,2.45-3.43,4.26-4.49,1.81-1.06,3.82-1.6,6.04-1.6s4.05.47,5.68,1.41ZM66.2,16.8c-.76-1.4-1.79-2.47-3.08-3.21-1.29-.74-2.71-1.12-4.26-1.12s-2.96.36-4.24,1.09-2.3,1.79-3.05,3.19c-.76,1.4-1.14,3.04-1.14,4.92s.38,3.58,1.14,4.99c.76,1.41,1.78,2.49,3.05,3.24,1.28.75,2.69,1.12,4.24,1.12s2.97-.37,4.26-1.12c1.29-.74,2.32-1.82,3.08-3.24.76-1.41,1.14-3.06,1.14-4.95s-.38-3.53-1.14-4.92Z"/>
        </g>
        <g class="cls-3">
          <path class="cls-2" d="M99.41,27.74h-13.63l-2.25,6.52h-7.21L88.63,0h7.99l12.3,34.26h-7.25l-2.25-6.52ZM97.55,22.25l-4.95-14.31-4.95,14.31h9.9Z"/>
        </g>
        <g class="cls-3">
          <path class="cls-1" d="M133.21,11.58c1.88,1.84,2.83,4.49,2.83,7.96v14.73h-4.1v-14.13c0-2.49-.62-4.4-1.87-5.72-1.25-1.32-2.95-1.98-5.11-1.98s-3.93.68-5.22,2.05c-1.29,1.37-1.94,3.36-1.94,5.97v13.82h-4.15V9.28h4.15v3.56c.82-1.28,1.94-2.26,3.35-2.96,1.41-.7,2.97-1.05,4.67-1.05,3.04,0,5.5.92,7.39,2.76Z"/>
        </g>
        <g class="cls-3">
          <path class="cls-2" d="M149.57.05v34.21h-6.86V.05h6.86Z"/>
        </g>
        <g class="cls-3">
          <path class="cls-1" d="M159.56,30.84h12.26v3.42h-17.01v-3.42l12.13-18.19h-12.04v-3.37h16.82v3.37l-12.17,18.19Z"/>
          <path class="cls-1" d="M199.86,23.32h-19.97c.15,2.46,1,4.39,2.53,5.77,1.53,1.38,3.4,2.07,5.59,2.07,1.79,0,3.29-.42,4.49-1.25,1.2-.84,2.04-1.95,2.53-3.35h4.47c-.67,2.4-2.01,4.35-4.01,5.86-2.01,1.5-4.5,2.26-7.48,2.26-2.37,0-4.49-.53-6.36-1.6-1.87-1.06-3.34-2.58-4.4-4.54-1.06-1.96-1.6-4.23-1.6-6.82s.52-4.85,1.55-6.79c1.03-1.94,2.48-3.44,4.35-4.49s4.02-1.57,6.45-1.57,4.47.52,6.29,1.55c1.82,1.03,3.23,2.45,4.22,4.26.99,1.81,1.48,3.85,1.48,6.13,0,.79-.05,1.63-.14,2.51ZM194.67,15.86c-.7-1.14-1.65-2.01-2.85-2.6-1.2-.59-2.53-.89-3.99-.89-2.1,0-3.88.67-5.36,2.01-1.47,1.34-2.32,3.19-2.53,5.56h15.78c0-1.58-.35-2.94-1.05-4.08Z"/>
        </g>
      </g>
    </g>
  </g>
</svg>