<?xml version="1.0" encoding="UTF-8"?>
<svg id="Layer_2" data-name="Layer 2" xmlns="http://www.w3.org/2000/svg" viewBox="0 0 877.3 204.29">
  <defs>
    <style>
      .cls-1 {
        fill: #000;
      }

      .cls-1, .cls-2 {
        stroke-width: 0px;
      }

      .cls-2 {
        fill: #c33;
      }

      .cls-3 {
        isolation: isolate;
      }
    </style>
  </defs>
  <g id="Layer_2-2" data-name="Layer 2">
    <g id="Layer_1-2" data-name="Layer 1-2">
      <g class="cls-3">
        <g class="cls-3">
          <path class="cls-1" d="M26.7,145.09c-8.33-4.67-14.87-11.3-19.6-19.9-4.73-8.6-7.1-18.57-7.1-29.9s2.43-21.1,7.3-29.7c4.87-8.6,11.5-15.2,19.9-19.8,8.4-4.6,17.8-6.9,28.2-6.9s19.8,2.3,28.2,6.9c8.4,4.6,15.03,11.17,19.9,19.7,4.87,8.53,7.3,18.47,7.3,29.8s-2.5,21.3-7.5,29.9c-5,8.6-11.77,15.23-20.3,19.9-8.53,4.67-18,7-28.4,7s-19.57-2.33-27.9-7ZM73,131.49c5.73-3.07,10.37-7.67,13.9-13.8,3.53-6.13,5.3-13.6,5.3-22.4s-1.73-16.27-5.2-22.4c-3.47-6.13-8-10.7-13.6-13.7s-11.67-4.5-18.2-4.5-12.77,1.5-18.3,4.5c-5.53,3-9.97,7.57-13.3,13.7-3.33,6.13-5,13.6-5,22.4s1.63,16.47,4.9,22.6c3.27,6.13,7.63,10.7,13.1,13.7,5.47,3,11.47,4.5,18,4.5s12.67-1.53,18.4-4.6Z"/>
          <path class="cls-1" d="M166.7,43.88c5.93-3.46,13.17-5.2,21.7-5.2v18.8h-4.8c-20.4,0-30.6,11.07-30.6,33.2v59.6h-18.2V40.69h18.2v17.8c3.2-6.27,7.77-11.13,13.7-14.6Z"/>
          <path class="cls-1" d="M279.5,45.08c7.13,4.13,12.43,9.33,15.9,15.6v-20h18.4v112c0,10-2.13,18.9-6.4,26.7-4.27,7.8-10.37,13.9-18.3,18.3-7.93,4.4-17.17,6.6-27.7,6.6-14.4,0-26.4-3.4-36-10.2s-15.27-16.07-17-27.8h18c2,6.67,6.13,12.03,12.4,16.1,6.27,4.07,13.8,6.1,22.6,6.1,10,0,18.17-3.13,24.5-9.4,6.33-6.27,9.5-15.07,9.5-26.4v-23c-3.6,6.4-8.93,11.73-16,16-7.07,4.27-15.33,6.4-24.8,6.4s-18.57-2.4-26.5-7.2c-7.93-4.8-14.17-11.53-18.7-20.2-4.53-8.67-6.8-18.53-6.8-29.6s2.27-21.03,6.8-29.5c4.53-8.47,10.77-15.03,18.7-19.7,7.93-4.67,16.77-7,26.5-7s17.77,2.07,24.9,6.2ZM290.4,73.69c-3.33-6.13-7.83-10.83-13.5-14.1-5.67-3.27-11.9-4.9-18.7-4.9s-13,1.6-18.6,4.8-10.07,7.87-13.4,14c-3.33,6.13-5,13.33-5,21.6s1.67,15.7,5,21.9c3.33,6.2,7.8,10.93,13.4,14.2,5.6,3.27,11.8,4.9,18.6,4.9s13.03-1.63,18.7-4.9c5.67-3.27,10.17-8,13.5-14.2,3.33-6.2,5-13.43,5-21.7s-1.67-15.47-5-21.6Z"/>
        </g>
        <g class="cls-3">
          <path class="cls-2" d="M436.05,121.69h-59.77l-9.89,28.59h-31.6L388.75,0h35.04l53.97,150.29h-31.82l-9.89-28.59ZM427.88,97.61l-21.71-62.78-21.72,62.78h43.43Z"/>
        </g>
        <g class="cls-3">
          <path class="cls-1" d="M584.33,50.79c8.27,8.07,12.4,19.7,12.4,34.9v64.6h-18v-62c0-10.93-2.73-19.3-8.2-25.1-5.47-5.8-12.93-8.7-22.4-8.7s-17.23,3-22.9,9c-5.67,6-8.5,14.73-8.5,26.2v60.6h-18.2V40.69h18.2v15.6c3.6-5.6,8.5-9.93,14.7-13,6.2-3.07,13.03-4.6,20.5-4.6,13.33,0,24.13,4.03,32.4,12.1Z"/>
        </g>
        <g class="cls-3">
          <path class="cls-2" d="M656.06.21v150.07h-30.1V.21h30.1Z"/>
        </g>
        <g class="cls-3">
          <path class="cls-1" d="M699.9,135.29h53.8v15h-74.6v-15l53.2-79.8h-52.8v-14.8h73.8v14.8l-53.4,79.8Z"/>
          <path class="cls-1" d="M876.7,102.29h-87.6c.67,10.8,4.37,19.23,11.1,25.3,6.73,6.07,14.9,9.1,24.5,9.1,7.87,0,14.43-1.83,19.7-5.5,5.27-3.67,8.97-8.57,11.1-14.7h19.6c-2.93,10.53-8.8,19.1-17.6,25.7-8.8,6.6-19.73,9.9-32.8,9.9-10.4,0-19.7-2.33-27.9-7-8.2-4.67-14.63-11.3-19.3-19.9-4.67-8.6-7-18.57-7-29.9s2.27-21.27,6.8-29.8c4.53-8.53,10.9-15.1,19.1-19.7s17.63-6.9,28.3-6.9,19.6,2.27,27.6,6.8c8,4.53,14.17,10.77,18.5,18.7,4.33,7.93,6.5,16.9,6.5,26.9,0,3.47-.2,7.13-.6,11ZM853.9,69.58c-3.07-5-7.23-8.8-12.5-11.4-5.27-2.6-11.1-3.9-17.5-3.9-9.2,0-17.03,2.93-23.5,8.8-6.47,5.87-10.17,14-11.1,24.4h69.2c0-6.93-1.54-12.9-4.6-17.9Z"/>
        </g>
      </g>
    </g>
  </g>
</svg>